<?xml version="1.0" encoding="iso-8859-1"?>
<!-- Generator: Adobe Illustrator 16.0.0, SVG Export Plug-In . SVG Version: 6.00 Build 0)  -->
<!DOCTYPE svg PUBLIC "-//W3C//DTD SVG 1.1//EN" "http://www.w3.org/Graphics/SVG/1.1/DTD/svg11.dtd">
<svg version="1.1" id="Capa_1" xmlns="http://www.w3.org/2000/svg" xmlns:xlink="http://www.w3.org/1999/xlink" x="0px" y="0px"
	 width="563.881px" height="563.881px" viewBox="0 0 563.881 563.881" style="enable-background:new 0 0 563.881 563.881;"
	 xml:space="preserve">
<g>
	<g>
		<path d="M7.164,124.165c-0.334-0.836-0.816-1.538-1.33-2.285c-0.241-0.351-0.502-0.73-0.779-1.171
			c-0.416-0.657-1.15-1.008-1.95-0.938c-0.775,0.086-1.436,0.608-1.697,1.347c-1.616,4.557-1.518,8.56-1.257,12.599
			c0.49,7.564,4.386,13.538,11.269,17.287c5.451,2.966,11.31,3.529,16.826,3.696l1.419,0.041c2.599,0.078,5.194,0.147,7.646,0.359
			c0.062,0.021,0.163,0.078,0.257,0.139c0.184,2.958,2.064,4.745,5.598,5.316c3.101,0.506,6.226,0.885,9.355,1.22
			c11.457,1.216,20.734,5.757,28.368,13.884c5.476,5.839,9.702,12.807,13.791,19.543c0.889,1.469,1.783,2.938,2.685,4.398
			c6.899,11.139,13.815,22.273,20.771,33.379c3.219,5.141,7.94,8.49,13.652,9.69c4.223,0.889,8.531,1.595,12.697,2.276
			c1.542,0.253,3.084,0.506,4.631,0.767c-2.925,4.108-5.859,8.209-8.788,12.31c-7.185,10.049-14.37,20.098-21.416,30.241
			c-17.173,24.729-32.95,49.727-46.896,74.309c-16.406,28.919-28.075,53.607-36.728,77.695c-4.59,12.787-7.254,23.525-8.389,33.799
			c-1.566,14.194,0.017,29.013,4.712,44.044c2.399,7.683,5.957,13.505,10.881,17.788c9.347,8.14,20.673,10.563,33.676,7.161
			c11.918-3.105,22.604-8.561,33.407-14.35c27.748-14.863,51.388-29.25,72.265-43.986c6.21-4.382,12.354-9.05,18.299-13.554
			l0.906-0.693c1.371-0.959,2.738-1.931,4.101-2.905c1.542-1.105,3.101-2.231,4.664-3.374l0.473,0.759
			c0.416,0.656,1.15,1.032,1.938,0.942c2.938-0.298,5.227-1.693,7.421-3.089c-1.424,1.518-2.929,3.26-3.888,5.672
			c-0.281,0.718-0.143,1.529,0.372,2.108c0.514,0.58,1.305,0.805,2.048,0.616c1.126-0.298,2.089-0.738,2.938-1.256
			c-0.465,0.828-0.856,1.729-1.122,2.733c-0.192,0.726,0.028,1.493,0.575,2.007c0.546,0.515,1.334,0.678,2.04,0.449
			c1.081-0.359,2.011-0.865,2.839-1.448c-0.139,0.188-0.273,0.375-0.408,0.562l-0.967,1.334c-0.661,0.898-0.477,2.163,0.417,2.836
			l0.706,0.539c0.592,0.457,1.383,0.559,2.073,0.257c1.077-0.474,2.003-1.085,2.832-1.771c-0.416,0.832-0.75,1.737-0.959,2.737
			c-0.146,0.702,0.086,1.432,0.612,1.918c0.53,0.493,1.273,0.66,1.962,0.457c0.771-0.229,1.812-0.596,2.722-1.294
			c-0.294,0.877-0.51,1.8-0.612,2.803c-0.077,0.768,0.281,1.51,0.935,1.922c0.648,0.42,1.473,0.429,2.134,0.041
			c0.722-0.425,1.358-0.914,1.926-1.44c-0.008,0.028-0.017,0.062-0.021,0.086l-0.302,1.15c-0.257,0.926,0.163,1.905,1.012,2.354
			l0.669,0.351c0.816,0.425,1.82,0.253,2.448-0.429c0.053-0.057,0.106-0.105,0.159-0.163c-0.008,0.073-0.013,0.147-0.021,0.225
			c-0.065,0.796,0.347,1.562,1.053,1.95c0.702,0.388,1.57,0.322,2.211-0.163c1.575-1.191,2.656-2.652,3.497-4.174
			c-0.404,1.493-0.624,3.072-0.425,4.806c0.086,0.768,0.601,1.42,1.33,1.682c0.727,0.265,1.538,0.094,2.102-0.433
			c2.542-2.403,3.546-5.378,4.517-8.25c0.245-0.722,0.485-1.444,0.759-2.154l0.053,0.013l-0.028,0.143
			c-0.31,1.493-0.604,2.921-0.828,4.354c-0.216,1.403-0.359,2.815-0.502,4.227l-0.184,1.787c-0.118,1.073,0.62,2.053,1.686,2.236
			l0.93,0.159c0.792,0.134,1.583-0.204,2.032-0.865c0.42-0.616,0.767-1.253,1.064-1.894c0.053,0.571,0.184,1.094,0.302,1.567
			l0.151,0.645c0.188,0.959,1.697,1.632,2.685,1.632c0.013,0,0.024,0,0.037,0c0.57-0.013,1.105-0.257,1.48-0.678
			c0.024,0.135,0.049,0.266,0.078,0.404c0.15,0.73,0.681,1.317,1.395,1.538c0.71,0.232,1.489,0.041,2.024-0.481
			c0.343-0.334,0.648-0.677,0.909-1.028l0.021,0.204c0.098,1.077,1.983,1.954,2.901,1.832c0.673-0.021,1.285-0.371,1.648-0.926
			c0.347,0.547,0.946,0.922,1.64,0.95l1.105,0.049c0.849,0.024,1.562-0.416,1.922-1.143c1.416-2.896,1.42-5.862,1.428-8.727
			c0-0.955,0-1.877,0.058-2.774h0.33v0.135c-0.012,1.591-0.021,3.129,0.024,4.671c0.119,3.905,0.339,6.186,3.387,7.581
			c0.628,0.29,1.362,0.24,1.95-0.139c0.416-0.266,0.718-0.673,0.853-1.134c0.073,0.13,0.146,0.261,0.225,0.396
			c0.384,0.637,1.105,1.02,1.823,0.991c0.743-0.028,1.412-0.453,1.751-1.118c0.163-0.322,0.302-0.645,0.424-0.975
			c0.106,0.204,0.217,0.403,0.307,0.604c0.416,0.918,2.17,1.191,3.141,0.931c0.833-0.229,1.429-0.955,1.494-1.812l0.008-0.074
			c0.404,0.486,0.995,0.768,1.652,0.747c0.706-0.028,1.351-0.42,1.701-1.036c0.579-1.021,0.897-1.987,0.972-2.941
			c0.334,0.701,0.738,1.391,1.231,2.052c0.474,0.637,1.273,0.931,2.061,0.775l0.991-0.212c1.057-0.229,1.759-1.245,1.592-2.31
			l-1.616-10.347c0.277,0.701,0.522,1.444,0.775,2.207c0.894,2.697,1.905,5.757,4.766,7.936c0.673,0.514,1.587,0.562,2.301,0.118
			c0.719-0.44,1.094-1.277,0.938-2.109c-0.379-2.081-0.946-4.076-1.559-6.018c0.931,2.325,2.212,4.696,4.863,6.349
			c0.706,0.432,1.607,0.407,2.281-0.086c0.358-0.262,0.616-0.629,0.746-1.036c0.184,0.109,0.384,0.195,0.6,0.248
			c0.616,0.144,1.266-0.004,1.759-0.403l1.135-0.914c0.665-0.53,0.93-1.42,0.665-2.231l-0.213-0.674
			c0.547,0.47,1.171,0.897,1.894,1.265c0.637,0.331,1.396,0.294,2.003-0.085c0.608-0.38,0.972-1.045,0.959-1.763
			c-0.017-1.077-0.2-2.053-0.494-2.954c0.543,0.444,1.146,0.853,1.82,1.188c0.673,0.334,1.477,0.273,2.093-0.163l0.723-0.515
			c0.905-0.641,1.13-1.893,0.506-2.807l-1.33-1.954c0.959,0.836,2.04,1.566,3.333,2.109c0.714,0.289,1.534,0.163,2.122-0.343
			l0.665-0.58c0.832-0.718,0.942-1.966,0.253-2.823l-1.094-1.351c0.645,0.49,1.351,0.931,2.134,1.294
			c0.742,0.343,1.624,0.208,2.235-0.343l0.837-0.759c0.796-0.719,0.901-1.926,0.24-2.771l-0.987-1.269
			c0.625,0.343,1.314,0.624,2.077,0.815c0.686,0.18,1.407-0.021,1.913-0.506l0.625-0.604c0.767-0.747,0.828-1.959,0.139-2.778
			l-3.722-4.398c0.005,0,0.009,0.004,0.017,0.008c2.143,1.399,4.569,2.979,7.654,3.162c0.82,0.062,1.51-0.351,1.893-1.024
			l0.466-0.823c0.045,0.036,0.09,0.073,0.135,0.102c5.883,4.558,11.971,9.266,18.099,13.729
			c25.744,18.764,53.762,36.018,85.651,52.742c9.245,4.847,20.09,10.249,31.864,12.945c2.926,0.669,5.863,1.012,8.731,1.012
			c13.428,0,25.015-7.49,30.996-20.028c5.487-11.497,7.001-23.795,7.707-33.224c1.525-20.399-4.284-39.27-10.163-55.035
			c-7.634-20.474-17.083-40.8-28.091-60.416c-8.246-14.696-18.083-31.976-28.486-48.757c-15.068-24.296-32.559-49.881-53.477-78.208
			c-0.771-1.044-1.522-2.102-2.302-3.211c1.469-0.249,2.941-0.481,4.415-0.718c4.1-0.657,8.339-1.334,12.488-2.248
			c3.403-0.755,7.679-2.093,10.502-5.818c2.407-3.174,5.21-6.948,7.731-10.841c2.518-3.88,4.966-7.805,7.418-11.73
			c2.126-3.407,4.255-6.818,6.426-10.196c1.399-2.179,2.782-4.37,4.166-6.557c4.015-6.361,8.164-12.934,12.664-19.045
			c6.847-9.286,16.536-14.839,28.809-16.508l3.334-0.424c2.831-0.355,5.765-0.718,8.637-1.289c1.579-0.31,4.558-2.073,4.619-4.337
			c0.016-0.661,0.15-0.853,0.15-0.853c0.208-0.167,1.229-0.22,1.714-0.245c1.416-0.069,2.832-0.11,4.251-0.159
			c3.15-0.102,6.41-0.212,9.625-0.555c8.499-0.901,14.574-4.28,18.58-10.326c4.496-6.793,3.909-14.211,2.611-21.22
			c-0.15-0.808-0.648-1.269-0.979-1.571l-0.318-0.31c-0.449-0.485-1.118-0.755-1.763-0.628c-0.657,0.086-1.229,0.486-1.534,1.073
			l-0.714,1.326c-0.502,0.914-0.959,1.763-1.358,2.64c-4.525,10.094-11.461,16.161-21.2,18.547
			c-5.545,1.359-11.118,2.603-16.691,3.848c-4.459,0.996-8.923,1.991-13.37,3.048c-7.531,1.783-13.79,5.108-18.613,9.882
			l-3.194,3.146c-4.137,4.047-8.413,8.242-12.231,12.746c-10.273,12.142-21.253,25.275-31.951,39.103
			c-5.104,6.597-11.203,9.882-19.191,10.322c-1.188,0.065-2.379,0.09-3.574,0.118c-4.692,0.102-9.527,0.208-14.113,2.583
			l-10.51-14.007c-2.077-2.966-4.162-5.924-6.259-8.878c-1.347-1.889-2.644-3.439-3.766-4.484l-2.302-3.068h3.497
			c1.028,0,1.897-0.767,2.023-1.787l0.09-0.714c0.135-1.057-0.571-2.036-1.611-2.252l-2.587-0.543
			c-1.853-0.392-3.704-0.779-5.565-1.134c-0.767-0.146-1.436-0.661-1.787-1.224h10.507c1.04,0,1.979-1.379,2.093-2.412
			c0.11-0.995-0.522-1.926-1.489-2.191l-0.571-0.171c-0.567-0.175-1.139-0.342-1.726-0.424c-2.729-0.387-5.459-0.742-8.25-1.069
			c-0.706-0.085-1.437-0.167-1.722-0.151c-0.041-0.212-0.082-0.424-0.118-0.641c1.109-0.118,2.228-0.196,3.35-0.273
			c3.374-0.245,6.866-0.489,10.27-1.775c0.853-0.322,1.387-1.167,1.313-2.077l-0.053-0.604c-0.094-1.053-0.976-1.856-2.032-1.856
			h-14.019l-0.221-1.134l12.212-2.868c1.053-0.249,1.729-1.273,1.542-2.338l-0.212-1.191c-0.188-1.081-1.208-1.832-2.273-1.669
			l-12.02,1.563l11.469-3.46c1.045-0.314,1.563-1.771,1.294-2.828l-0.18-0.702c-0.266-1.032-1.285-1.656-2.342-1.497l-13.085,2.395
			l-0.154-0.428c0.832-0.232,1.664-0.441,2.492-0.653c3.546-0.906,7.218-1.836,10.519-4.06c0.682-0.457,1.02-1.281,0.86-2.089
			c-0.158-0.804-0.787-1.44-1.591-1.604c-0.918-0.196-1.832-0.241-2.722-0.151c0.764-0.836,1.444-1.787,2.04-2.844l3.46-6.087
			c1.963-3.443,3.925-6.887,5.847-10.355c4.048-7.307,8.083-14.623,12.122-21.938c7.617-13.811,15.234-27.622,22.945-41.379
			c3.595-6.405,8.214-13.713,15.235-19.323c2.044-1.636,3.668-2.04,5.793-1.489c5.9,1.546,12.208,1.579,18.797,0.078
			c11.012-2.501,21.583-6.667,31.363-10.792c4.944-2.089,8.453-5.594,10.433-10.429c0.648-1.587,1.171-3.219,1.688-4.851l0.69-2.125
			c0.31-0.926-0.078-1.942-0.927-2.423l-0.942-0.539c-0.771-0.437-1.742-0.326-2.395,0.278c-0.393,0.359-0.792,0.71-1.191,1.065
			c-0.979,0.861-1.991,1.75-2.894,2.799c-1.032,1.199-1.876,2.505-2.692,3.77l-0.641,0.979c-1.244,1.881-2.742,2.819-4.863,3.06
			c-4.549,0.518-9.095,1.065-13.644,1.611c-8.013,0.963-16.026,1.934-24.056,2.722c-6.675,0.665-12.905,2.46-18.52,5.34
			c-6.218,3.187-9.976,8.915-13.007,14.027c-3.79,6.389-7.434,12.999-10.959,19.384c-1.746,3.167-3.492,6.336-5.263,9.486
			l-1.146,2.081c-2.55,4.664-4.962,9.066-9.335,11.906c-1.399,0.91-2.008,2.672-2.208,3.39c-0.645,2.33-2.113,4.031-4.275,6.022
			l-1.171,1.073c-2.48,2.26-5.047,4.594-6.944,7.458c-4.614,6.981-8.947,14.292-13.134,21.354l-1.624,2.738
			c-0.24,0.408-0.387,0.596-0.416,0.657c-1.844-0.535-4.108-0.465-6.34-0.245c-0.563,0.057-1.126,0.11-1.689,0.147l2.815-3.187
			c0.689-0.779,0.682-1.955-0.021-2.726l-0.624-0.677c-0.714-0.767-1.89-0.869-2.729-0.241l-4.113,3.121l3.497-4.337
			c0.682-0.84,0.583-2.064-0.216-2.791l-0.71-0.645c-0.768-0.698-1.926-0.706-2.705-0.033l-2.354,2.032l1.342-2.24
			c0.543-0.906,0.307-2.077-0.546-2.697l-0.796-0.567c-0.849-0.608-2.031-0.485-2.726,0.302l-0.987,1.118
			c0.232-0.571,0.188-1.208-0.094-1.73c2.628-2.044,4.329-4.961,4.773-8.278c0.429-3.211-0.403-6.405-2.264-8.874
			c1.701-0.257,3.354-0.53,4.981-0.918c8.943-2.117,13.99-9.661,12.55-18.784c-1.044-6.626-4.831-12.203-11.575-17.054
			c-10.024-7.202-21.787-10.029-34.867-8.38c-0.2,0.024-0.376,0.045-0.343,0.245c-0.004-0.004-0.086-0.126-0.2-0.539
			c-2.02-7.197-8.601-10.975-15.725-8.943c-1.909,0.547-3.573,1.571-5.189,2.566l-0.375,0.232c-0.172,0.012-0.343,0.033-0.515,0.049
			c-9.645-9.253-20.774-9.106-30.306,0.306c-4.256-2.713-7.353-3.888-10.159-3.888c-5.427,0-8.756,4.655-11.469,9.979
			c-0.241-0.016-0.481-0.037-0.718-0.057c-17.651-1.787-30.878,2.962-40.841,14.513c-4.529,5.251-6.3,11.396-5.125,17.764
			c1.114,6.022,5.369,10.078,12.652,12.065c1.624,0.44,3.244,0.685,4.827,0.889c-0.792,1.191-1.542,2.452-1.995,3.896
			c-1.546,4.974,0.204,9.865,4.354,13.162c-0.302,0.526-0.363,1.171-0.135,1.758l-0.983-1.114c-0.702-0.804-1.901-0.926-2.75-0.286
			l-0.734,0.551c-0.84,0.625-1.064,1.787-0.53,2.681l1.387,2.322l-2.378-2.061c-0.816-0.702-2.04-0.649-2.795,0.118l-0.71,0.727
			c-0.738,0.747-0.583,2.187,0.085,2.99l3.272,3.958l-4.153-3.134c-0.861-0.641-2.069-0.518-2.771,0.294l-0.571,0.657
			c-0.677,0.775-0.673,1.934,0.012,2.697l2.64,2.975c-1.208-0.086-2.464-0.167-3.819-0.237c-0.767,0-1.566,0.155-2.305,0.453
			c-0.979,0.383-1.734,0.118-2.264-0.874l-1.085-2.04c-1.53-2.893-3.117-5.879-4.847-8.752c-4.59-7.621-9.796-16.259-17.948-22.595
			c-0.338-0.261-0.971-0.755-1.081-0.975c-1.681-4.619-4.925-7.838-8.058-10.951l-1.032-1.028c-0.404-0.408-0.747-0.971-0.967-1.367
			l-2.109-3.676c-1.979-3.443-3.958-6.883-5.822-10.383l-1.709-3.236c-4.37-8.27-8.895-16.826-14.664-24.549
			c-3.929-5.263-7.805-8.507-12.566-10.518c-6.793-2.864-13.856-3.607-20.686-4.325c-7.071-0.747-14.125-1.624-21.184-2.505
			c-3.876-0.485-7.756-0.971-11.636-1.432c-2.015-0.245-3.48-1.232-4.745-3.215c-1.085-1.697-2.403-3.672-3.954-5.447
			c-0.808-0.935-1.754-1.6-2.668-2.244c-0.343-0.245-0.686-0.485-1.016-0.743c-0.844-0.661-2.223-0.343-2.941,0.433l-0.392,0.42
			c-0.469,0.506-0.657,1.208-0.494,1.876c1.701,6.981,4.353,13.889,12.211,17.124c7.389,3.048,14.892,5.806,20.6,7.87
			c12.289,4.431,21.792,5.349,32.098,2.938c0.783,0,2.097,0.543,3.129,1.29c5.251,3.819,9.73,9.127,14.092,16.704
			c6.765,11.758,13.309,23.493,19.372,34.419c3.048,5.5,6.047,11.016,9.049,16.54c2.546,4.68,5.092,9.364,7.663,14.027
			c3.366,6.104,6.834,12.146,10.302,18.188c0.506,0.877,1.077,1.673,1.718,2.391c-0.539-0.077-1.098-0.057-1.665-0.028l-0.587,0.021
			c-0.996,0-1.853,0.747-2.016,1.73l-0.143,0.832c-0.179,1.02,0.429,2.012,1.42,2.31l12.571,3.786l-0.139,0.367l-13.027-2.456
			c-1.061-0.204-2.105,0.465-2.358,1.521l-0.192,0.804c-0.208,0.873,0.18,1.783,0.955,2.235c2.828,1.653,5.9,2.403,8.874,3.125
			c1.188,0.29,2.33,0.571,3.448,0.897l-12.55-1.603c-1.097-0.143-2.089,0.6-2.272,1.681l-0.196,1.146
			c-0.184,1.061,0.49,2.081,1.534,2.33l12.256,2.925c-0.053,0.318-0.102,0.637-0.131,0.955c-0.041,0.424-0.11,0.555-0.212,0.424
			c-0.131,0-0.273-0.012-0.433-0.029c-2.917-0.314-5.871-0.4-8.727-0.478l-1.354-0.032c-0.836,0-1.673,0.077-2.509,0.151
			l-1.155,0.098c-1.04,0.074-1.881,1.522-1.921,2.562c-0.037,0.889,0.51,1.697,1.346,1.999c3.403,1.228,6.895,1.498,10.273,1.763
			c1.204,0.09,2.403,0.184,3.599,0.322c0,0.237,0.016,0.388,0.053,0.408c-0.266,0.127-1.347,0.253-2.293,0.355l-1.277,0.114
			c-0.706,0.061-1.412,0.114-2.105,0.22c-1.612,0.241-3.219,0.501-4.823,0.767l-1.893,0.314c-1.041,0.167-1.783,1.105-1.706,2.154
			l0.057,0.767c0.086,1.061,0.971,1.876,2.036,1.876h10.498c-0.424,0.69-1.13,1.13-2.109,1.322c-1.86,0.363-3.717,0.763-5.573,1.159
			l-2.256,0.481c-1.069,0.229-1.771,1.256-1.591,2.33l0.122,0.734c0.171,0.975,1.02,1.689,2.012,1.689h3.439l-22.693,30.212
			c-0.621-0.159-1.224-0.322-1.816-0.481c-2.24-0.6-4.357-1.171-6.54-1.518c-2.334-0.379-4.684-0.42-6.96-0.457l-1.297-0.024
			c-8.797-0.196-15.276-3.5-20.392-10.408c-7.511-10.13-15.969-20.718-25.859-32.367c-3.476-4.088-7.295-7.948-10.992-11.685
			c-2.656-2.685-5.316-5.373-7.866-8.16c-6.079-6.643-13.709-11.008-22.668-12.983c-2.097-0.461-4.194-0.938-6.292-1.416
			c-5.263-1.2-10.71-2.436-16.124-3.436C20.93,142.798,11.803,135.85,7.164,124.165z"/>
	</g>
</g>
<g>
</g>
<g>
</g>
<g>
</g>
<g>
</g>
<g>
</g>
<g>
</g>
<g>
</g>
<g>
</g>
<g>
</g>
<g>
</g>
<g>
</g>
<g>
</g>
<g>
</g>
<g>
</g>
<g>
</g>
</svg>
